<svg width="149" height="123" viewBox="0 0 149 123" fill="none" xmlns="http://www.w3.org/2000/svg">
<mask id="path-1-inside-1_10_152" fill="white">
<path fill-rule="evenodd" clip-rule="evenodd" d="M126.752 59.6641C123.82 60.5334 120.714 61 117.5 61C99.5507 61 85 46.4493 85 28.5C85 16.4412 91.5676 5.91625 101.321 0.307011C99.7426 0.104443 98.1335 0 96.5 0C75.7893 0 59 16.7893 59 37.5C59 58.2107 75.7893 75 96.5 75C108.919 75 119.928 68.9632 126.752 59.6641Z"/>
</mask>
<path fill-rule="evenodd" clip-rule="evenodd" d="M126.752 59.6641C123.82 60.5334 120.714 61 117.5 61C99.5507 61 85 46.4493 85 28.5C85 16.4412 91.5676 5.91625 101.321 0.307011C99.7426 0.104443 98.1335 0 96.5 0C75.7893 0 59 16.7893 59 37.5C59 58.2107 75.7893 75 96.5 75C108.919 75 119.928 68.9632 126.752 59.6641Z" fill="url(#paint0_radial_10_152)"/>
<path d="M126.752 59.6641L127.558 60.2558L129.316 57.8612L126.468 58.7053L126.752 59.6641ZM101.321 0.307011L101.819 1.17388L104.394 -0.306787L101.448 -0.684854L101.321 0.307011ZM126.468 58.7053C123.627 59.5475 120.617 60 117.5 60V62C120.812 62 124.013 61.5192 127.036 60.6229L126.468 58.7053ZM117.5 60C100.103 60 86 45.897 86 28.5H84C84 47.0015 98.9985 62 117.5 62V60ZM86 28.5C86 16.8135 92.3636 6.61202 101.819 1.17388L100.822 -0.559855C90.7715 5.22048 84 16.0688 84 28.5H86ZM96.5 1C98.0908 1 99.6574 1.10171 101.194 1.29888L101.448 -0.684854C99.8277 -0.892826 98.1761 -1 96.5 -1V1ZM60 37.5C60 17.3416 76.3416 1 96.5 1V-1C75.237 -1 58 16.237 58 37.5H60ZM96.5 74C76.3416 74 60 57.6584 60 37.5H58C58 58.763 75.237 76 96.5 76V74ZM125.946 59.0725C119.302 68.1259 108.587 74 96.5 74V76C109.251 76 120.554 69.8006 127.558 60.2558L125.946 59.0725Z" fill="url(#paint1_linear_10_152)" fill-opacity="0.15" mask="url(#path-1-inside-1_10_152)"/>
<g filter="url(#filter0_bd_10_152)">
<path fill-rule="evenodd" clip-rule="evenodd" d="M106.243 108.512C99.6918 111.967 91.6679 114 83 114C75.2574 114 68.0287 112.378 61.9046 109.569C57.8106 112.343 52.6319 114 47 114C33.7452 114 23 104.822 23 93.5C23 82.4223 33.2867 73.3969 46.146 73.0127C52.2198 62.4272 66.4338 55 83 55C96.8692 55 109.09 60.2058 116.265 68.1124C131.851 69.1913 144 77.9075 144 88.5C144 99.8218 130.121 109 113 109C110.679 109 108.418 108.831 106.243 108.512Z" fill="white" fill-opacity="0.8" shape-rendering="crispEdges"/>
</g>
<g filter="url(#filter1_bd_10_152)">
<path fill-rule="evenodd" clip-rule="evenodd" d="M60.092 90.4152C55.7565 92.7019 50.446 94.0476 44.7094 94.0476C39.5852 94.0476 34.8011 92.9739 30.748 91.1149C28.0385 92.951 24.6111 94.0476 20.8838 94.0476C12.1114 94.0476 5 87.9733 5 80.4802C5 73.1488 11.808 67.1755 20.3186 66.9213C24.3384 59.9155 33.7455 55 44.7094 55C53.8884 55 61.9763 58.4453 66.7253 63.6781C77.0404 64.3922 85.0807 70.1607 85.0807 77.1711C85.0807 84.6642 75.8951 90.7385 64.5642 90.7385C63.0282 90.7385 61.5316 90.6269 60.092 90.4152Z" fill="white" fill-opacity="0.8" shape-rendering="crispEdges"/>
</g>
<defs>
<filter id="filter0_bd_10_152" x="17" y="49" width="133" height="74" filterUnits="userSpaceOnUse" color-interpolation-filters="sRGB">
<feFlood flood-opacity="0" result="BackgroundImageFix"/>
<feGaussianBlur in="BackgroundImageFix" stdDeviation="3"/>
<feComposite in2="SourceAlpha" operator="in" result="effect1_backgroundBlur_10_152"/>
<feColorMatrix in="SourceAlpha" type="matrix" values="0 0 0 0 0 0 0 0 0 0 0 0 0 0 0 0 0 0 127 0" result="hardAlpha"/>
<feOffset dy="4"/>
<feGaussianBlur stdDeviation="2.5"/>
<feComposite in2="hardAlpha" operator="out"/>
<feColorMatrix type="matrix" values="0 0 0 0 0 0 0 0 0 0 0 0 0 0 0 0 0 0 0.2 0"/>
<feBlend mode="normal" in2="effect1_backgroundBlur_10_152" result="effect2_dropShadow_10_152"/>
<feBlend mode="normal" in="SourceGraphic" in2="effect2_dropShadow_10_152" result="shape"/>
</filter>
<filter id="filter1_bd_10_152" x="-1" y="49" width="92.0807" height="54.0476" filterUnits="userSpaceOnUse" color-interpolation-filters="sRGB">
<feFlood flood-opacity="0" result="BackgroundImageFix"/>
<feGaussianBlur in="BackgroundImageFix" stdDeviation="3"/>
<feComposite in2="SourceAlpha" operator="in" result="effect1_backgroundBlur_10_152"/>
<feColorMatrix in="SourceAlpha" type="matrix" values="0 0 0 0 0 0 0 0 0 0 0 0 0 0 0 0 0 0 127 0" result="hardAlpha"/>
<feOffset dy="4"/>
<feGaussianBlur stdDeviation="2.5"/>
<feComposite in2="hardAlpha" operator="out"/>
<feColorMatrix type="matrix" values="0 0 0 0 0 0 0 0 0 0 0 0 0 0 0 0 0 0 0.2 0"/>
<feBlend mode="normal" in2="effect1_backgroundBlur_10_152" result="effect2_dropShadow_10_152"/>
<feBlend mode="normal" in="SourceGraphic" in2="effect2_dropShadow_10_152" result="shape"/>
</filter>
<radialGradient id="paint0_radial_10_152" cx="0" cy="0" r="1" gradientUnits="userSpaceOnUse" gradientTransform="translate(100.625 35.25) rotate(95.9246) scale(39.9635)">
<stop offset="0.3125" stop-color="#DB00FF"/>
<stop offset="1" stop-color="#8F00FF"/>
</radialGradient>
<linearGradient id="paint1_linear_10_152" x1="96.5" y1="0" x2="96.5" y2="75" gradientUnits="userSpaceOnUse">
<stop stop-color="#FFE999"/>
<stop offset="1" stop-color="#FFAE50"/>
</linearGradient>
</defs>
</svg>
