<svg width="68" height="75" viewBox="0 0 68 75" fill="none" xmlns="http://www.w3.org/2000/svg">
<mask id="path-1-inside-1_10_144" fill="white">
<path fill-rule="evenodd" clip-rule="evenodd" d="M67.7521 59.6641C64.8198 60.5334 61.7144 61 58.5 61C40.5507 61 26 46.4493 26 28.5C26 16.4412 32.5676 5.91625 42.3209 0.307011C40.7426 0.104443 39.1335 0 37.5 0C16.7893 0 0 16.7893 0 37.5C0 58.2107 16.7893 75 37.5 75C49.9188 75 60.9276 68.9632 67.7521 59.6641Z"/>
</mask>
<path fill-rule="evenodd" clip-rule="evenodd" d="M67.7521 59.6641C64.8198 60.5334 61.7144 61 58.5 61C40.5507 61 26 46.4493 26 28.5C26 16.4412 32.5676 5.91625 42.3209 0.307011C40.7426 0.104443 39.1335 0 37.5 0C16.7893 0 0 16.7893 0 37.5C0 58.2107 16.7893 75 37.5 75C49.9188 75 60.9276 68.9632 67.7521 59.6641Z" fill="url(#paint0_radial_10_144)"/>
<path d="M67.7521 59.6641L68.5583 60.2558L70.3157 57.8612L67.4679 58.7053L67.7521 59.6641ZM42.3209 0.307011L42.8195 1.17388L45.3941 -0.306787L42.4482 -0.684854L42.3209 0.307011ZM67.4679 58.7053C64.6269 59.5475 61.6171 60 58.5 60V62C61.8116 62 65.0127 61.5192 68.0363 60.6229L67.4679 58.7053ZM58.5 60C41.103 60 27 45.897 27 28.5H25C25 47.0015 39.9985 62 58.5 62V60ZM27 28.5C27 16.8135 33.3636 6.61202 42.8195 1.17388L41.8224 -0.559855C31.7715 5.22048 25 16.0688 25 28.5H27ZM37.5 1C39.0908 1 40.6574 1.10171 42.1936 1.29888L42.4482 -0.684854C40.8277 -0.892826 39.1761 -1 37.5 -1V1ZM1 37.5C1 17.3416 17.3416 1 37.5 1V-1C16.237 -1 -1 16.237 -1 37.5H1ZM37.5 74C17.3416 74 1 57.6584 1 37.5H-1C-1 58.763 16.237 76 37.5 76V74ZM66.9459 59.0725C60.3017 68.1259 49.5869 74 37.5 74V76C50.2507 76 61.5535 69.8006 68.5583 60.2558L66.9459 59.0725Z" fill="url(#paint1_linear_10_144)" fill-opacity="0.15" mask="url(#path-1-inside-1_10_144)"/>
<defs>
<radialGradient id="paint0_radial_10_144" cx="0" cy="0" r="1" gradientUnits="userSpaceOnUse" gradientTransform="translate(41.625 35.25) rotate(95.9246) scale(39.9635)">
<stop offset="0.3125" stop-color="#DB00FF"/>
<stop offset="1" stop-color="#8F00FF"/>
</radialGradient>
<linearGradient id="paint1_linear_10_144" x1="37.5" y1="0" x2="37.5" y2="75" gradientUnits="userSpaceOnUse">
<stop stop-color="#FFE999"/>
<stop offset="1" stop-color="#FFAE50"/>
</linearGradient>
</defs>
</svg>
