<svg width="121" height="114" viewBox="0 0 121 114" fill="none" xmlns="http://www.w3.org/2000/svg">
<mask id="path-1-inside-1_142_195" fill="white">
<path fill-rule="evenodd" clip-rule="evenodd" d="M116.752 59.6641C113.82 60.5334 110.714 61 107.5 61C89.5507 61 75 46.4493 75 28.5C75 16.4412 81.5676 5.91625 91.3209 0.307011C89.7426 0.104443 88.1335 0 86.5 0C65.7893 0 49 16.7893 49 37.5C49 58.2107 65.7893 75 86.5 75C98.9188 75 109.928 68.9632 116.752 59.6641Z"/>
</mask>
<path fill-rule="evenodd" clip-rule="evenodd" d="M116.752 59.6641C113.82 60.5334 110.714 61 107.5 61C89.5507 61 75 46.4493 75 28.5C75 16.4412 81.5676 5.91625 91.3209 0.307011C89.7426 0.104443 88.1335 0 86.5 0C65.7893 0 49 16.7893 49 37.5C49 58.2107 65.7893 75 86.5 75C98.9188 75 109.928 68.9632 116.752 59.6641Z" fill="url(#paint0_radial_142_195)"/>
<path d="M116.752 59.6641L117.558 60.2558L119.316 57.8612L116.468 58.7053L116.752 59.6641ZM91.3209 0.307011L91.8195 1.17388L94.3941 -0.306787L91.4482 -0.684854L91.3209 0.307011ZM116.468 58.7053C113.627 59.5475 110.617 60 107.5 60V62C110.812 62 114.013 61.5192 117.036 60.6229L116.468 58.7053ZM107.5 60C90.103 60 76 45.897 76 28.5H74C74 47.0015 88.9985 62 107.5 62V60ZM76 28.5C76 16.8135 82.3636 6.61202 91.8195 1.17388L90.8224 -0.559855C80.7715 5.22048 74 16.0688 74 28.5H76ZM86.5 1C88.0908 1 89.6574 1.10171 91.1936 1.29888L91.4482 -0.684854C89.8277 -0.892826 88.1761 -1 86.5 -1V1ZM50 37.5C50 17.3416 66.3416 1 86.5 1V-1C65.237 -1 48 16.237 48 37.5H50ZM86.5 74C66.3416 74 50 57.6584 50 37.5H48C48 58.763 65.237 76 86.5 76V74ZM115.946 59.0725C109.302 68.1259 98.5869 74 86.5 74V76C99.2507 76 110.554 69.8006 117.558 60.2558L115.946 59.0725Z" fill="url(#paint1_linear_142_195)" fill-opacity="0.15" mask="url(#path-1-inside-1_142_195)"/>
<g filter="url(#filter0_b_142_195)">
<path fill-rule="evenodd" clip-rule="evenodd" d="M83.2427 108.512C76.6918 111.967 68.6679 114 60 114C52.2574 114 45.0287 112.378 38.9046 109.569C34.8106 112.343 29.6319 114 24 114C10.7452 114 0 104.822 0 93.5C0 82.4223 10.2867 73.3969 23.146 73.0127C29.2198 62.4272 43.4338 55 60 55C73.8692 55 86.0899 60.2058 93.2654 68.1124C108.851 69.1913 121 77.9075 121 88.5C121 99.8218 107.121 109 90 109C87.6792 109 85.4179 108.831 83.2427 108.512Z" fill="white" fill-opacity="0.8"/>
</g>
<defs>
<filter id="filter0_b_142_195" x="-6" y="49" width="133" height="71" filterUnits="userSpaceOnUse" color-interpolation-filters="sRGB">
<feFlood flood-opacity="0" result="BackgroundImageFix"/>
<feGaussianBlur in="BackgroundImageFix" stdDeviation="3"/>
<feComposite in2="SourceAlpha" operator="in" result="effect1_backgroundBlur_142_195"/>
<feBlend mode="normal" in="SourceGraphic" in2="effect1_backgroundBlur_142_195" result="shape"/>
</filter>
<radialGradient id="paint0_radial_142_195" cx="0" cy="0" r="1" gradientUnits="userSpaceOnUse" gradientTransform="translate(90.625 35.25) rotate(95.9246) scale(39.9635)">
<stop offset="0.3125" stop-color="#DB00FF"/>
<stop offset="1" stop-color="#8F00FF"/>
</radialGradient>
<linearGradient id="paint1_linear_142_195" x1="86.5" y1="0" x2="86.5" y2="75" gradientUnits="userSpaceOnUse">
<stop stop-color="#FFE999"/>
<stop offset="1" stop-color="#FFAE50"/>
</linearGradient>
</defs>
</svg>
