<svg width="168" height="175" viewBox="0 0 168 175" fill="none" xmlns="http://www.w3.org/2000/svg">
<g filter="url(#filter0_d_10_144)">
<mask id="path-1-inside-1_10_144" fill="white">
<path fill-rule="evenodd" clip-rule="evenodd" d="M117.752 109.664C114.82 110.533 111.714 111 108.5 111C90.5507 111 76 96.4493 76 78.5C76 66.4412 82.5676 55.9162 92.3209 50.307C90.7426 50.1044 89.1335 50 87.5 50C66.7893 50 50 66.7893 50 87.5C50 108.211 66.7893 125 87.5 125C99.9188 125 110.928 118.963 117.752 109.664Z"/>
</mask>
<path fill-rule="evenodd" clip-rule="evenodd" d="M117.752 109.664C114.82 110.533 111.714 111 108.5 111C90.5507 111 76 96.4493 76 78.5C76 66.4412 82.5676 55.9162 92.3209 50.307C90.7426 50.1044 89.1335 50 87.5 50C66.7893 50 50 66.7893 50 87.5C50 108.211 66.7893 125 87.5 125C99.9188 125 110.928 118.963 117.752 109.664Z" fill="url(#paint0_radial_10_144)"/>
<path d="M117.752 109.664L118.558 110.256L120.316 107.861L117.468 108.705L117.752 109.664ZM92.3209 50.307L92.8195 51.1739L95.3941 49.6932L92.4482 49.3151L92.3209 50.307ZM117.468 108.705C114.627 109.548 111.617 110 108.5 110V112C111.812 112 115.013 111.519 118.036 110.623L117.468 108.705ZM108.5 110C91.103 110 77 95.897 77 78.5H75C75 97.0015 89.9985 112 108.5 112V110ZM77 78.5C77 66.8135 83.3636 56.612 92.8195 51.1739L91.8224 49.4401C81.7715 55.2205 75 66.0688 75 78.5H77ZM87.5 51C89.0908 51 90.6574 51.1017 92.1936 51.2989L92.4482 49.3151C90.8277 49.1072 89.1761 49 87.5 49V51ZM51 87.5C51 67.3416 67.3416 51 87.5 51V49C66.237 49 49 66.237 49 87.5H51ZM87.5 124C67.3416 124 51 107.658 51 87.5H49C49 108.763 66.237 126 87.5 126V124ZM116.946 109.072C110.302 118.126 99.5869 124 87.5 124V126C100.251 126 111.554 119.801 118.558 110.256L116.946 109.072Z" fill="url(#paint1_linear_10_144)" fill-opacity="0.15" mask="url(#path-1-inside-1_10_144)"/>
</g>
<defs>
<filter id="filter0_d_10_144" x="0" y="0" width="167.752" height="175" filterUnits="userSpaceOnUse" color-interpolation-filters="sRGB">
<feFlood flood-opacity="0" result="BackgroundImageFix"/>
<feColorMatrix in="SourceAlpha" type="matrix" values="0 0 0 0 0 0 0 0 0 0 0 0 0 0 0 0 0 0 127 0" result="hardAlpha"/>
<feOffset/>
<feGaussianBlur stdDeviation="25"/>
<feComposite in2="hardAlpha" operator="out"/>
<feColorMatrix type="matrix" values="0 0 0 0 0.92 0 0 0 0 0 0 0 0 0 1 0 0 0 0.25 0"/>
<feBlend mode="normal" in2="BackgroundImageFix" result="effect1_dropShadow_10_144"/>
<feBlend mode="normal" in="SourceGraphic" in2="effect1_dropShadow_10_144" result="shape"/>
</filter>
<radialGradient id="paint0_radial_10_144" cx="0" cy="0" r="1" gradientUnits="userSpaceOnUse" gradientTransform="translate(91.625 85.25) rotate(95.9246) scale(39.9635)">
<stop offset="0.3125" stop-color="#DB00FF"/>
<stop offset="1" stop-color="#8F00FF"/>
</radialGradient>
<linearGradient id="paint1_linear_10_144" x1="87.5" y1="50" x2="87.5" y2="125" gradientUnits="userSpaceOnUse">
<stop stop-color="#FFE999"/>
<stop offset="1" stop-color="#FFAE50"/>
</linearGradient>
</defs>
</svg>
