<svg fill="none" xmlns="http://www.w3.org/2000/svg" viewBox="5 49 121 115"><g filter="url(#filter0_d_142_195)"><mask id="path-1-inside-1_142_195" fill="white"><path fill-rule="evenodd" clip-rule="evenodd" d="M121.752 109.664C118.82 110.533 115.714 111 112.5 111C94.5507 111 80 96.4493 80 78.5C80 66.4412 86.5676 55.9162 96.3209 50.307C94.7426 50.1044 93.1335 50 91.5 50C70.7893 50 54 66.7893 54 87.5C54 108.211 70.7893 125 91.5 125C103.919 125 114.928 118.963 121.752 109.664Z"/></mask><path fill-rule="evenodd" clip-rule="evenodd" d="M121.752 109.664C118.82 110.533 115.714 111 112.5 111C94.5507 111 80 96.4493 80 78.5C80 66.4412 86.5676 55.9162 96.3209 50.307C94.7426 50.1044 93.1335 50 91.5 50C70.7893 50 54 66.7893 54 87.5C54 108.211 70.7893 125 91.5 125C103.919 125 114.928 118.963 121.752 109.664Z" fill="url(#paint0_radial_142_195)"/><path d="M121.752 109.664L122.558 110.256L124.316 107.861L121.468 108.705L121.752 109.664ZM96.3209 50.307L96.8195 51.1739L99.3941 49.6932L96.4482 49.3151L96.3209 50.307ZM121.468 108.705C118.627 109.548 115.617 110 112.5 110V112C115.812 112 119.013 111.519 122.036 110.623L121.468 108.705ZM112.5 110C95.103 110 81 95.897 81 78.5H79C79 97.0015 93.9985 112 112.5 112V110ZM81 78.5C81 66.8135 87.3636 56.612 96.8195 51.1739L95.8224 49.4401C85.7715 55.2205 79 66.0688 79 78.5H81ZM91.5 51C93.0908 51 94.6574 51.1017 96.1936 51.2989L96.4482 49.3151C94.8277 49.1072 93.1761 49 91.5 49V51ZM55 87.5C55 67.3416 71.3416 51 91.5 51V49C70.237 49 53 66.237 53 87.5H55ZM91.5 124C71.3416 124 55 107.658 55 87.5H53C53 108.763 70.237 126 91.5 126V124ZM120.946 109.072C114.302 118.126 103.587 124 91.5 124V126C104.251 126 115.554 119.801 122.558 110.256L120.946 109.072Z" fill="url(#paint1_linear_142_195)" fill-opacity="0.15" mask="url(#path-1-inside-1_142_195)"/></g><g filter="url(#filter1_bd_142_195)"><path fill-rule="evenodd" clip-rule="evenodd" d="M88.2427 158.512C81.6918 161.967 73.6679 164 65 164C57.2574 164 50.0287 162.378 43.9046 159.569C39.8106 162.343 34.6319 164 29 164C15.7452 164 5 154.822 5 143.5C5 132.422 15.2867 123.397 28.146 123.013C34.2198 112.427 48.4338 105 65 105C78.8692 105 91.0899 110.206 98.2654 118.112C113.851 119.191 126 127.907 126 138.5C126 149.822 112.121 159 95 159C92.6792 159 90.4179 158.831 88.2427 158.512Z" fill="white" fill-opacity="0.8" shape-rendering="crispEdges"/></g><defs><filter id="filter0_d_142_195" x="4" y="0" width="167.752" height="175" filterUnits="userSpaceOnUse" color-interpolation-filters="sRGB"><feFlood flood-opacity="0" result="BackgroundImageFix"/><feColorMatrix in="SourceAlpha" type="matrix" values="0 0 0 0 0 0 0 0 0 0 0 0 0 0 0 0 0 0 127 0" result="hardAlpha"/><feOffset/><feGaussianBlur stdDeviation="25"/><feComposite in2="hardAlpha" operator="out"/><feColorMatrix type="matrix" values="0 0 0 0 0.92 0 0 0 0 0 0 0 0 0 1 0 0 0 0.25 0"/><feBlend mode="normal" in2="BackgroundImageFix" result="effect1_dropShadow_142_195"/><feBlend mode="normal" in="SourceGraphic" in2="effect1_dropShadow_142_195" result="shape"/></filter><filter id="filter1_bd_142_195" x="-1" y="99" width="133" height="74" filterUnits="userSpaceOnUse" color-interpolation-filters="sRGB"><feFlood flood-opacity="0" result="BackgroundImageFix"/><feGaussianBlur in="BackgroundImageFix" stdDeviation="3"/><feComposite in2="SourceAlpha" operator="in" result="effect1_backgroundBlur_142_195"/><feColorMatrix in="SourceAlpha" type="matrix" values="0 0 0 0 0 0 0 0 0 0 0 0 0 0 0 0 0 0 127 0" result="hardAlpha"/><feOffset dy="4"/><feGaussianBlur stdDeviation="2.5"/><feComposite in2="hardAlpha" operator="out"/><feColorMatrix type="matrix" values="0 0 0 0 0 0 0 0 0 0 0 0 0 0 0 0 0 0 0.2 0"/><feBlend mode="normal" in2="effect1_backgroundBlur_142_195" result="effect2_dropShadow_142_195"/><feBlend mode="normal" in="SourceGraphic" in2="effect2_dropShadow_142_195" result="shape"/></filter><radialGradient id="paint0_radial_142_195" cx="0" cy="0" r="1" gradientUnits="userSpaceOnUse" gradientTransform="translate(95.625 85.25) rotate(95.9246) scale(39.9635)"><stop offset="0.3125" stop-color="#DB00FF"/><stop offset="1" stop-color="#8F00FF"/></radialGradient><linearGradient id="paint1_linear_142_195" x1="91.5" y1="50" x2="91.5" y2="125" gradientUnits="userSpaceOnUse"><stop stop-color="#FFE999"/><stop offset="1" stop-color="#FFAE50"/></linearGradient></defs></svg>