<svg width="173" height="97" viewBox="0 0 173 97" fill="none" xmlns="http://www.w3.org/2000/svg">
<path fill-rule="evenodd" clip-rule="evenodd" d="M63.2805 63C64.3851 63 65.2805 63.8954 65.2805 65V66.341L66.6494 65.5507C67.606 64.9984 68.8291 65.3262 69.3814 66.2827C69.9337 67.2393 69.606 68.4625 68.6494 69.0148L67.3249 69.7795L68.6494 70.5442C69.606 71.0965 69.9337 72.3197 69.3814 73.2763C68.8291 74.2328 67.606 74.5606 66.6494 74.0083L65.2805 73.218V74.987C65.2805 76.0916 64.3851 76.987 63.2805 76.987C62.1759 76.987 61.2805 76.0916 61.2805 74.987V73.2692L60.0003 74.0083C59.0438 74.5606 57.8206 74.2328 57.2683 73.2763C56.716 72.3197 57.0438 71.0965 58.0003 70.5442L59.3249 69.7795L58.0003 69.0148C57.0438 68.4625 56.716 67.2393 57.2683 66.2827C57.8206 65.3262 59.0438 64.9984 60.0003 65.5507L61.2805 66.2898V65C61.2805 63.8954 62.1759 63 63.2805 63Z" fill="url(#paint0_linear_11_299)"/>
<path fill-rule="evenodd" clip-rule="evenodd" d="M73.2805 45C74.3851 45 75.2805 45.8954 75.2805 47V48.341L76.6494 47.5507C77.6059 46.9984 78.8291 47.3262 79.3814 48.2827C79.9337 49.2393 79.6059 50.4625 78.6494 51.0148L77.3248 51.7795L78.6494 52.5442C79.6059 53.0965 79.9337 54.3197 79.3814 55.2763C78.8291 56.2328 77.6059 56.5606 76.6494 56.0083L75.2805 55.218V56.987C75.2805 58.0916 74.3851 58.987 73.2805 58.987C72.1759 58.987 71.2805 58.0916 71.2805 56.987V55.2692L70.0003 56.0083C69.0437 56.5606 67.8206 56.2328 67.2683 55.2763C66.716 54.3197 67.0437 53.0965 68.0003 52.5442L69.3248 51.7795L68.0003 51.0148C67.0437 50.4625 66.716 49.2393 67.2683 48.2827C67.8206 47.3262 69.0437 46.9984 70.0003 47.5507L71.2805 48.2898V47C71.2805 45.8954 72.1759 45 73.2805 45Z" fill="url(#paint1_linear_11_299)"/>
<path fill-rule="evenodd" clip-rule="evenodd" d="M87.2805 57C88.3851 57 89.2805 57.8954 89.2805 59V60.341L90.6494 59.5507C91.6059 58.9984 92.8291 59.3262 93.3814 60.2827C93.9337 61.2393 93.6059 62.4625 92.6494 63.0148L91.3248 63.7795L92.6494 64.5442C93.6059 65.0965 93.9337 66.3197 93.3814 67.2763C92.8291 68.2328 91.6059 68.5606 90.6494 68.0083L89.2805 67.218V68.987C89.2805 70.0916 88.3851 70.987 87.2805 70.987C86.1759 70.987 85.2805 70.0916 85.2805 68.987L85.2805 67.2692L84.0003 68.0083C83.0437 68.5606 81.8206 68.2328 81.2683 67.2763C80.716 66.3197 81.0437 65.0965 82.0003 64.5442L83.3248 63.7795L82.0003 63.0148C81.0437 62.4625 80.716 61.2393 81.2683 60.2827C81.8206 59.3262 83.0437 58.9984 84.0003 59.5507L85.2805 60.2898V59C85.2805 57.8954 86.1759 57 87.2805 57Z" fill="url(#paint2_linear_11_299)"/>
<path fill-rule="evenodd" clip-rule="evenodd" d="M111.28 52C112.385 52 113.28 52.8954 113.28 54V55.341L114.649 54.5507C115.606 53.9984 116.829 54.3262 117.381 55.2827C117.934 56.2393 117.606 57.4625 116.649 58.0148L115.325 58.7795L116.649 59.5442C117.606 60.0965 117.934 61.3197 117.381 62.2763C116.829 63.2328 115.606 63.5606 114.649 63.0083L113.28 62.218V63.987C113.28 65.0916 112.385 65.987 111.28 65.987C110.176 65.987 109.28 65.0916 109.28 63.987L109.28 62.2692L108 63.0083C107.044 63.5606 105.821 63.2328 105.268 62.2763C104.716 61.3197 105.044 60.0965 106 59.5442L107.325 58.7795L106 58.0148C105.044 57.4625 104.716 56.2393 105.268 55.2827C105.821 54.3262 107.044 53.9984 108 54.5507L109.28 55.2898V54C109.28 52.8954 110.176 52 111.28 52Z" fill="url(#paint3_linear_11_299)"/>
<path fill-rule="evenodd" clip-rule="evenodd" d="M102.28 73C103.385 73 104.28 73.8954 104.28 75V76.341L105.649 75.5507C106.606 74.9984 107.829 75.3262 108.381 76.2827C108.934 77.2393 108.606 78.4625 107.649 79.0148L106.325 79.7795L107.649 80.5442C108.606 81.0965 108.934 82.3197 108.381 83.2763C107.829 84.2328 106.606 84.5606 105.649 84.0083L104.28 83.218V84.987C104.28 86.0916 103.385 86.987 102.28 86.987C101.176 86.987 100.28 86.0916 100.28 84.987L100.28 83.2692L99.0003 84.0083C98.0437 84.5606 96.8206 84.2328 96.2683 83.2763C95.716 82.3197 96.0437 81.0965 97.0003 80.5442L98.3248 79.7795L97.0003 79.0148C96.0437 78.4625 95.716 77.2393 96.2683 76.2827C96.8206 75.3262 98.0437 74.9984 99.0003 75.5507L100.28 76.2898V75C100.28 73.8954 101.176 73 102.28 73Z" fill="url(#paint4_linear_11_299)"/>
<path fill-rule="evenodd" clip-rule="evenodd" d="M74.2805 83C75.3851 83 76.2805 83.8954 76.2805 85V86.341L77.6494 85.5507C78.6059 84.9984 79.8291 85.3262 80.3814 86.2827C80.9337 87.2393 80.6059 88.4625 79.6494 89.0148L78.3248 89.7795L79.6494 90.5442C80.6059 91.0965 80.9337 92.3197 80.3814 93.2763C79.8291 94.2328 78.6059 94.5606 77.6494 94.0083L76.2805 93.218V94.987C76.2805 96.0916 75.3851 96.987 74.2805 96.987C73.1759 96.987 72.2805 96.0916 72.2805 94.987L72.2805 93.2692L71.0003 94.0083C70.0437 94.5606 68.8206 94.2328 68.2683 93.2763C67.716 92.3197 68.0437 91.0965 69.0003 90.5442L70.3248 89.7795L69.0003 89.0148C68.0437 88.4625 67.716 87.2393 68.2683 86.2827C68.8206 85.3262 70.0437 84.9984 71.0003 85.5507L72.2805 86.2898V85C72.2805 83.8954 73.1759 83 74.2805 83Z" fill="url(#paint5_linear_11_299)"/>
<g filter="url(#filter0_bd_11_299)">
<path fill-rule="evenodd" clip-rule="evenodd" d="M108.243 54.5116C101.692 57.9667 93.6679 60 85 60C77.2574 60 70.0287 58.3776 63.9046 55.5687C59.8106 58.343 54.6319 60 49 60C35.7452 60 25 50.8218 25 39.5C25 28.4223 35.2867 19.3969 48.146 19.0127C54.2198 8.42716 68.4338 1 85 1C98.8692 1 111.09 6.20576 118.265 14.1124C133.851 15.1913 146 23.9075 146 34.5C146 45.8218 132.121 55 115 55C112.679 55 110.418 54.8313 108.243 54.5116Z" fill="white" fill-opacity="0.8" shape-rendering="crispEdges"/>
</g>
<g filter="url(#filter1_bd_11_299)">
<path fill-rule="evenodd" clip-rule="evenodd" d="M60.092 39.4152C55.7565 41.7019 50.446 43.0476 44.7094 43.0476C39.5852 43.0476 34.8011 41.9739 30.748 40.1149C28.0385 41.951 24.6111 43.0476 20.8838 43.0476C12.1114 43.0476 5 36.9733 5 29.4802C5 22.1488 11.808 16.1755 20.3186 15.9213C24.3384 8.91547 33.7455 4 44.7094 4C53.8884 4 61.9763 7.4453 66.7253 12.6781C77.0404 13.3922 85.0807 19.1607 85.0807 26.1711C85.0807 33.6642 75.8951 39.7385 64.5642 39.7385C63.0282 39.7385 61.5316 39.6269 60.092 39.4152Z" fill="white" fill-opacity="0.8" shape-rendering="crispEdges"/>
</g>
<g filter="url(#filter2_bd_11_299)">
<path fill-rule="evenodd" clip-rule="evenodd" d="M142.092 59.4152C137.756 61.7019 132.446 63.0476 126.709 63.0476C121.585 63.0476 116.801 61.9739 112.748 60.1149C110.039 61.951 106.611 63.0476 102.884 63.0476C94.1114 63.0476 87 56.9733 87 49.4802C87 42.1488 93.808 36.1755 102.319 35.9213C106.338 28.9155 115.746 24 126.709 24C135.888 24 143.976 27.4453 148.725 32.6781C159.04 33.3922 167.081 39.1607 167.081 46.1711C167.081 53.6642 157.895 59.7385 146.564 59.7385C145.028 59.7385 143.532 59.6269 142.092 59.4152Z" fill="white" fill-opacity="0.8" shape-rendering="crispEdges"/>
</g>
<defs>
<filter id="filter0_bd_11_299" x="19" y="-5" width="133" height="74" filterUnits="userSpaceOnUse" color-interpolation-filters="sRGB">
<feFlood flood-opacity="0" result="BackgroundImageFix"/>
<feGaussianBlur in="BackgroundImageFix" stdDeviation="3"/>
<feComposite in2="SourceAlpha" operator="in" result="effect1_backgroundBlur_11_299"/>
<feColorMatrix in="SourceAlpha" type="matrix" values="0 0 0 0 0 0 0 0 0 0 0 0 0 0 0 0 0 0 127 0" result="hardAlpha"/>
<feOffset dy="4"/>
<feGaussianBlur stdDeviation="2.5"/>
<feComposite in2="hardAlpha" operator="out"/>
<feColorMatrix type="matrix" values="0 0 0 0 0 0 0 0 0 0 0 0 0 0 0 0 0 0 0.2 0"/>
<feBlend mode="normal" in2="effect1_backgroundBlur_11_299" result="effect2_dropShadow_11_299"/>
<feBlend mode="normal" in="SourceGraphic" in2="effect2_dropShadow_11_299" result="shape"/>
</filter>
<filter id="filter1_bd_11_299" x="-1" y="-2" width="92.0807" height="54.0476" filterUnits="userSpaceOnUse" color-interpolation-filters="sRGB">
<feFlood flood-opacity="0" result="BackgroundImageFix"/>
<feGaussianBlur in="BackgroundImageFix" stdDeviation="3"/>
<feComposite in2="SourceAlpha" operator="in" result="effect1_backgroundBlur_11_299"/>
<feColorMatrix in="SourceAlpha" type="matrix" values="0 0 0 0 0 0 0 0 0 0 0 0 0 0 0 0 0 0 127 0" result="hardAlpha"/>
<feOffset dy="4"/>
<feGaussianBlur stdDeviation="2.5"/>
<feComposite in2="hardAlpha" operator="out"/>
<feColorMatrix type="matrix" values="0 0 0 0 0 0 0 0 0 0 0 0 0 0 0 0 0 0 0.2 0"/>
<feBlend mode="normal" in2="effect1_backgroundBlur_11_299" result="effect2_dropShadow_11_299"/>
<feBlend mode="normal" in="SourceGraphic" in2="effect2_dropShadow_11_299" result="shape"/>
</filter>
<filter id="filter2_bd_11_299" x="81" y="18" width="92.0807" height="54.0476" filterUnits="userSpaceOnUse" color-interpolation-filters="sRGB">
<feFlood flood-opacity="0" result="BackgroundImageFix"/>
<feGaussianBlur in="BackgroundImageFix" stdDeviation="3"/>
<feComposite in2="SourceAlpha" operator="in" result="effect1_backgroundBlur_11_299"/>
<feColorMatrix in="SourceAlpha" type="matrix" values="0 0 0 0 0 0 0 0 0 0 0 0 0 0 0 0 0 0 127 0" result="hardAlpha"/>
<feOffset dy="4"/>
<feGaussianBlur stdDeviation="2.5"/>
<feComposite in2="hardAlpha" operator="out"/>
<feColorMatrix type="matrix" values="0 0 0 0 0 0 0 0 0 0 0 0 0 0 0 0 0 0 0.2 0"/>
<feBlend mode="normal" in2="effect1_backgroundBlur_11_299" result="effect2_dropShadow_11_299"/>
<feBlend mode="normal" in="SourceGraphic" in2="effect2_dropShadow_11_299" result="shape"/>
</filter>
<linearGradient id="paint0_linear_11_299" x1="53.7505" y1="42.5806" x2="73.2263" y2="42.5911" gradientUnits="userSpaceOnUse">
<stop stop-color="#00A3FF"/>
<stop offset="1" stop-color="#74CDFF"/>
</linearGradient>
<linearGradient id="paint1_linear_11_299" x1="66.8311" y1="32.8098" x2="80.0404" y2="32.8167" gradientUnits="userSpaceOnUse">
<stop stop-color="#00A3FF"/>
<stop offset="1" stop-color="#74CDFF"/>
</linearGradient>
<linearGradient id="paint2_linear_11_299" x1="80.8311" y1="44.8098" x2="94.0404" y2="44.8167" gradientUnits="userSpaceOnUse">
<stop stop-color="#00A3FF"/>
<stop offset="1" stop-color="#74CDFF"/>
</linearGradient>
<linearGradient id="paint3_linear_11_299" x1="104.831" y1="39.8098" x2="118.04" y2="39.8167" gradientUnits="userSpaceOnUse">
<stop stop-color="#00A3FF"/>
<stop offset="1" stop-color="#74CDFF"/>
</linearGradient>
<linearGradient id="paint4_linear_11_299" x1="95.8311" y1="60.8098" x2="109.04" y2="60.8167" gradientUnits="userSpaceOnUse">
<stop stop-color="#00A3FF"/>
<stop offset="1" stop-color="#74CDFF"/>
</linearGradient>
<linearGradient id="paint5_linear_11_299" x1="67.8311" y1="70.8098" x2="81.0404" y2="70.8167" gradientUnits="userSpaceOnUse">
<stop stop-color="#00A3FF"/>
<stop offset="1" stop-color="#74CDFF"/>
</linearGradient>
</defs>
</svg>
