<svg fill="none" xmlns="http://www.w3.org/2000/svg" viewBox="5 49.5 145 128.5">
<g filter="url(#filter0_d_10_184)">
<circle cx="89.5" cy="87.5" r="37.5" fill="url(#paint0_radial_10_184)"/>
<circle cx="89.5" cy="87.5" r="37" stroke="url(#paint1_linear_10_184)" stroke-opacity="0.15"/>
</g>
<path d="M74 129L60 153" stroke="url(#paint2_linear_10_184)" stroke-width="10" stroke-linecap="round"/>
<path d="M91 131L80 150" stroke="url(#paint3_linear_10_184)" stroke-width="10" stroke-linecap="round"/>
<path d="M111 129L98 153" stroke="url(#paint4_linear_10_184)" stroke-width="10" stroke-linecap="round"/>
<g filter="url(#filter1_bd_10_184)">
<path fill-rule="evenodd" clip-rule="evenodd" d="M112.243 136.512C105.692 139.967 97.6679 142 89 142C81.2574 142 74.0287 140.378 67.9046 137.569C63.8106 140.343 58.6319 142 53 142C39.7452 142 29 132.822 29 121.5C29 110.422 39.2867 101.397 52.146 101.013C58.2198 90.4272 72.4338 83 89 83C102.869 83 115.09 88.2058 122.265 96.1124C137.851 97.1913 150 105.907 150 116.5C150 127.822 136.121 137 119 137C116.679 137 114.418 136.831 112.243 136.512Z" fill="white" fill-opacity="0.8" shape-rendering="crispEdges"/>
</g>
<g filter="url(#filter2_bd_10_184)">
<path fill-rule="evenodd" clip-rule="evenodd" d="M60.092 118.415C55.7565 120.702 50.446 122.048 44.7094 122.048C39.5852 122.048 34.8011 120.974 30.748 119.115C28.0385 120.951 24.6111 122.048 20.8838 122.048C12.1114 122.048 5 115.973 5 108.48C5 101.149 11.808 95.1755 20.3186 94.9213C24.3384 87.9155 33.7455 83 44.7094 83C53.8884 83 61.9763 86.4453 66.7253 91.6781C77.0404 92.3922 85.0807 98.1607 85.0807 105.171C85.0807 112.664 75.8951 118.738 64.5642 118.738C63.0282 118.738 61.5316 118.627 60.092 118.415Z" fill="white" fill-opacity="0.8" shape-rendering="crispEdges"/>
</g>
<defs>
<filter id="filter0_d_10_184" x="2" y="0" width="175" height="175" filterUnits="userSpaceOnUse" color-interpolation-filters="sRGB">
<feFlood flood-opacity="0" result="BackgroundImageFix"/>
<feColorMatrix in="SourceAlpha" type="matrix" values="0 0 0 0 0 0 0 0 0 0 0 0 0 0 0 0 0 0 127 0" result="hardAlpha"/>
<feOffset/>
<feGaussianBlur stdDeviation="25"/>
<feComposite in2="hardAlpha" operator="out"/>
<feColorMatrix type="matrix" values="0 0 0 0 1 0 0 0 0 0.54 0 0 0 0 0 0 0 0 0.25 0"/>
<feBlend mode="normal" in2="BackgroundImageFix" result="effect1_dropShadow_10_184"/>
<feBlend mode="normal" in="SourceGraphic" in2="effect1_dropShadow_10_184" result="shape"/>
</filter>
<filter id="filter1_bd_10_184" x="23" y="77" width="133" height="74" filterUnits="userSpaceOnUse" color-interpolation-filters="sRGB">
<feFlood flood-opacity="0" result="BackgroundImageFix"/>
<feGaussianBlur in="BackgroundImageFix" stdDeviation="3"/>
<feComposite in2="SourceAlpha" operator="in" result="effect1_backgroundBlur_10_184"/>
<feColorMatrix in="SourceAlpha" type="matrix" values="0 0 0 0 0 0 0 0 0 0 0 0 0 0 0 0 0 0 127 0" result="hardAlpha"/>
<feOffset dy="4"/>
<feGaussianBlur stdDeviation="2.5"/>
<feComposite in2="hardAlpha" operator="out"/>
<feColorMatrix type="matrix" values="0 0 0 0 0 0 0 0 0 0 0 0 0 0 0 0 0 0 0.2 0"/>
<feBlend mode="normal" in2="effect1_backgroundBlur_10_184" result="effect2_dropShadow_10_184"/>
<feBlend mode="normal" in="SourceGraphic" in2="effect2_dropShadow_10_184" result="shape"/>
</filter>
<filter id="filter2_bd_10_184" x="-1" y="77" width="92.0807" height="54.0476" filterUnits="userSpaceOnUse" color-interpolation-filters="sRGB">
<feFlood flood-opacity="0" result="BackgroundImageFix"/>
<feGaussianBlur in="BackgroundImageFix" stdDeviation="3"/>
<feComposite in2="SourceAlpha" operator="in" result="effect1_backgroundBlur_10_184"/>
<feColorMatrix in="SourceAlpha" type="matrix" values="0 0 0 0 0 0 0 0 0 0 0 0 0 0 0 0 0 0 127 0" result="hardAlpha"/>
<feOffset dy="4"/>
<feGaussianBlur stdDeviation="2.5"/>
<feComposite in2="hardAlpha" operator="out"/>
<feColorMatrix type="matrix" values="0 0 0 0 0 0 0 0 0 0 0 0 0 0 0 0 0 0 0.2 0"/>
<feBlend mode="normal" in2="effect1_backgroundBlur_10_184" result="effect2_dropShadow_10_184"/>
<feBlend mode="normal" in="SourceGraphic" in2="effect2_dropShadow_10_184" result="shape"/>
</filter>
<radialGradient id="paint0_radial_10_184" cx="0" cy="0" r="1" gradientUnits="userSpaceOnUse" gradientTransform="translate(93.625 85.25) rotate(95.9246) scale(39.9635)">
<stop offset="0.286458" stop-color="#FFE600"/>
<stop offset="1" stop-color="#FF9900"/>
</radialGradient>
<linearGradient id="paint1_linear_10_184" x1="89.5" y1="50" x2="89.5" y2="125" gradientUnits="userSpaceOnUse">
<stop stop-color="#FFE999"/>
<stop offset="1" stop-color="#FFAE50"/>
</linearGradient>
<linearGradient id="paint2_linear_10_184" x1="74.9398" y1="129.119" x2="59.9199" y2="153.938" gradientUnits="userSpaceOnUse">
<stop stop-color="#00A3FF"/>
<stop offset="1" stop-color="#74CDFF"/>
</linearGradient>
<linearGradient id="paint3_linear_10_184" x1="91.9011" y1="131.183" x2="80.1634" y2="150.874" gradientUnits="userSpaceOnUse">
<stop stop-color="#00A3FF"/>
<stop offset="1" stop-color="#74CDFF"/>
</linearGradient>
<linearGradient id="paint4_linear_10_184" x1="111.94" y1="129.095" x2="97.971" y2="153.935" gradientUnits="userSpaceOnUse">
<stop stop-color="#00A3FF"/>
<stop offset="1" stop-color="#74CDFF"/>
</linearGradient>
</defs>
</svg>