<svg width="175" height="175" viewBox="0 0 175 175" fill="none" xmlns="http://www.w3.org/2000/svg">
<g filter="url(#filter0_d_139_194)">
<circle cx="87.5" cy="87.5" r="37.5" fill="url(#paint0_radial_139_194)"/>
<circle cx="87.5" cy="87.5" r="37" stroke="url(#paint1_linear_139_194)" stroke-opacity="0.15"/>
</g>
<g filter="url(#filter1_bd_139_194)">
<path fill-rule="evenodd" clip-rule="evenodd" d="M100.243 132.512C93.6918 135.967 85.6679 138 77 138C69.2574 138 62.0287 136.378 55.9046 133.569C51.8106 136.343 46.6319 138 41 138C27.7452 138 17 128.822 17 117.5C17 106.422 27.2867 97.3969 40.146 97.0127C46.2198 86.4272 60.4338 79 77 79C90.8692 79 103.09 84.2058 110.265 92.1124C125.851 93.1913 138 101.907 138 112.5C138 123.822 124.121 133 107 133C104.679 133 102.418 132.831 100.243 132.512Z" fill="white" fill-opacity="0.8" shape-rendering="crispEdges"/>
</g>
<defs>
<filter id="filter0_d_139_194" x="0" y="0" width="175" height="175" filterUnits="userSpaceOnUse" color-interpolation-filters="sRGB">
<feFlood flood-opacity="0" result="BackgroundImageFix"/>
<feColorMatrix in="SourceAlpha" type="matrix" values="0 0 0 0 0 0 0 0 0 0 0 0 0 0 0 0 0 0 127 0" result="hardAlpha"/>
<feOffset/>
<feGaussianBlur stdDeviation="25"/>
<feComposite in2="hardAlpha" operator="out"/>
<feColorMatrix type="matrix" values="0 0 0 0 1 0 0 0 0 0.54 0 0 0 0 0 0 0 0 0.25 0"/>
<feBlend mode="normal" in2="BackgroundImageFix" result="effect1_dropShadow_139_194"/>
<feBlend mode="normal" in="SourceGraphic" in2="effect1_dropShadow_139_194" result="shape"/>
</filter>
<filter id="filter1_bd_139_194" x="11" y="73" width="133" height="74" filterUnits="userSpaceOnUse" color-interpolation-filters="sRGB">
<feFlood flood-opacity="0" result="BackgroundImageFix"/>
<feGaussianBlur in="BackgroundImageFix" stdDeviation="3"/>
<feComposite in2="SourceAlpha" operator="in" result="effect1_backgroundBlur_139_194"/>
<feColorMatrix in="SourceAlpha" type="matrix" values="0 0 0 0 0 0 0 0 0 0 0 0 0 0 0 0 0 0 127 0" result="hardAlpha"/>
<feOffset dy="4"/>
<feGaussianBlur stdDeviation="2.5"/>
<feComposite in2="hardAlpha" operator="out"/>
<feColorMatrix type="matrix" values="0 0 0 0 0 0 0 0 0 0 0 0 0 0 0 0 0 0 0.2 0"/>
<feBlend mode="normal" in2="effect1_backgroundBlur_139_194" result="effect2_dropShadow_139_194"/>
<feBlend mode="normal" in="SourceGraphic" in2="effect2_dropShadow_139_194" result="shape"/>
</filter>
<radialGradient id="paint0_radial_139_194" cx="0" cy="0" r="1" gradientUnits="userSpaceOnUse" gradientTransform="translate(91.625 85.25) rotate(95.9246) scale(39.9635)">
<stop offset="0.286458" stop-color="#FFE600"/>
<stop offset="1" stop-color="#FF9900"/>
</radialGradient>
<linearGradient id="paint1_linear_139_194" x1="87.5" y1="50" x2="87.5" y2="125" gradientUnits="userSpaceOnUse">
<stop stop-color="#FFE999"/>
<stop offset="1" stop-color="#FFAE50"/>
</linearGradient>
</defs>
</svg>
