<svg width="7" height="14" viewBox="0 0 7 14" fill="none" xmlns="http://www.w3.org/2000/svg">
<path d="M5.6 7.7V2.1C5.6 1.54305 5.37875 1.0089 4.98492 0.615076C4.5911 0.221249 4.05695 0 3.5 0C2.94305 0 2.4089 0.221249 2.01508 0.615076C1.62125 1.0089 1.4 1.54305 1.4 2.1V7.7C0.812329 8.14075 0.378233 8.75524 0.159203 9.45641C-0.059828 10.1576 -0.0526888 10.9099 0.179609 11.6068C0.411906 12.3037 0.857585 12.9098 1.45351 13.3393C2.04944 13.7689 2.76541 14 3.5 14C4.23459 14 4.95056 13.7689 5.54649 13.3393C6.14242 12.9098 6.58809 12.3037 6.82039 11.6068C7.05269 10.9099 7.05983 10.1576 6.8408 9.45641C6.62177 8.75524 6.18767 8.14075 5.6 7.7ZM3.5 1.4C3.68565 1.4 3.8637 1.47375 3.99497 1.60503C4.12625 1.7363 4.2 1.91435 4.2 2.1V7H2.8V2.1C2.8 1.91435 2.87375 1.7363 3.00503 1.60503C3.1363 1.47375 3.31435 1.4 3.5 1.4Z" fill="black"/>
</svg>
