<svg width="16" height="16" viewBox="0 0 16 16" fill="none" xmlns="http://www.w3.org/2000/svg">
<path d="M1 8H1.77778M14.2222 8H15M3.02222 3.02222L3.56667 3.56667M12.9778 3.02222L12.4333 3.56667M4.88889 8C4.88889 7.17488 5.21667 6.38356 5.80011 5.80011C6.38356 5.21667 7.17488 4.88889 8 4.88889C8.82512 4.88889 9.61644 5.21667 10.1999 5.80011C10.7833 6.38356 11.1111 7.17488 11.1111 8M8 1.77778V1M8.77778 11.1111L10.3333 15H11.1111L12.6667 11.1111M3.33333 11.1111V13.4444C3.33333 13.857 3.49722 14.2527 3.78894 14.5444C4.08067 14.8361 4.47633 15 4.88889 15C5.30145 15 5.69711 14.8361 5.98883 14.5444C6.28056 14.2527 6.44444 13.857 6.44444 13.4444V11.1111" stroke="black" stroke-width="2" stroke-linecap="round" stroke-linejoin="round"/>
</svg>
